<svg width="29" height="32" viewBox="0 0 29 32" fill="none" xmlns="http://www.w3.org/2000/svg">
<g clip-path="url(#clip0)">
<path fill-rule="evenodd" clip-rule="evenodd" d="M2.91779 5.9415L4.29679 14.5736H12.8193C13.1674 14.5736 13.5012 14.7239 13.7474 14.9914C13.9935 15.259 14.1318 15.6218 14.1318 16.0002C14.1318 16.3786 13.9935 16.7414 13.7474 17.009C13.5012 17.2765 13.1674 17.4268 12.8193 17.4268H4.29679L2.91779 26.0589L24.5075 16.0002L2.91779 5.9415ZM1.86254 16.0002L0.243786 5.88063C0.171397 5.428 0.212815 4.96253 0.363665 4.53337C0.514514 4.10421 0.769195 3.7273 1.10081 3.44245C1.43242 3.15759 1.82865 2.97538 2.24766 2.91504C2.66666 2.8547 3.09287 2.91849 3.48129 3.09965L26.9348 14.0257C27.2898 14.1918 27.5923 14.4673 27.8049 14.8182C28.0175 15.1691 28.1307 15.5801 28.1307 16.0002C28.1307 16.4203 28.0175 16.8313 27.8049 17.1822C27.5923 17.5331 27.2898 17.8086 26.9348 17.9747L3.47954 28.9007C3.09097 29.0821 2.66456 29.1459 2.24537 29.0855C1.82618 29.0251 1.42979 28.8427 1.09812 28.5576C0.766439 28.2725 0.511795 27.8953 0.361104 27.4658C0.210412 27.0364 0.169273 26.5706 0.242036 26.1179L1.86429 16.0002H1.86254Z" fill="white" fill-opacity="0.9"/>
</g>
<defs>
<clipPath id="clip0">
<rect x="0.130859" y="0.782837" width="28" height="30.4348" rx="2" fill="white"/>
</clipPath>
</defs>
</svg>
