<svg width="25" height="25" viewBox="0 0 25 25" fill="none" xmlns="http://www.w3.org/2000/svg">
<path d="M22.1704 8.62062L15.9717 7.71974L13.2007 2.10206C13.125 1.94825 13.0005 1.82374 12.8467 1.74806C12.4609 1.55763 11.9922 1.71632 11.7993 2.10206L9.02829 7.71974L2.82955 8.62062C2.65865 8.64503 2.5024 8.7256 2.38277 8.84767C2.23815 8.99631 2.15845 9.1963 2.1612 9.40368C2.16395 9.61105 2.24891 9.80886 2.39742 9.95362L6.88229 14.3262L5.82272 20.5005C5.79788 20.6441 5.81377 20.7918 5.8686 20.9269C5.92343 21.062 6.01501 21.1789 6.13295 21.2646C6.25089 21.3503 6.39047 21.4012 6.53586 21.4115C6.68125 21.4219 6.82664 21.3913 6.95554 21.3233L12.5 18.4082L18.0444 21.3233C18.1958 21.4038 18.3716 21.4307 18.54 21.4014C18.9648 21.3281 19.2505 20.9253 19.1772 20.5005L18.1177 14.3262L22.6025 9.95362C22.7246 9.83399 22.8052 9.67774 22.8296 9.50685C22.8955 9.0796 22.5977 8.68409 22.1704 8.62062ZM16.2305 13.7109L17.1118 18.8452L12.5 16.4234L7.88816 18.8477L8.76951 13.7134L5.03903 10.0757L10.1953 9.32618L12.5 4.65577L14.8047 9.32618L19.9609 10.0757L16.2305 13.7109Z" fill="#F8AA17"/>
</svg>
