<svg width="25" height="25" viewBox="0 0 25 25" fill="none" xmlns="http://www.w3.org/2000/svg">
<path d="M22.1704 8.62062L15.9717 7.71974L13.2007 2.10206C13.125 1.94825 13.0005 1.82374 12.8467 1.74806C12.461 1.55763 11.9922 1.71632 11.7993 2.10206L9.02834 7.71974L2.82961 8.62062C2.65871 8.64503 2.50246 8.72559 2.38284 8.84767C2.23821 8.99631 2.15852 9.1963 2.16126 9.40368C2.16401 9.61105 2.24897 9.80886 2.39748 9.95362L6.88235 14.3262L5.82278 20.5005C5.79793 20.6441 5.81382 20.7918 5.86866 20.9269C5.92349 21.062 6.01506 21.1789 6.133 21.2646C6.25094 21.3503 6.39052 21.4012 6.53591 21.4115C6.6813 21.4219 6.82669 21.3913 6.95559 21.3233L12.5 18.4082L18.0445 21.3233C18.1958 21.4038 18.3716 21.4307 18.5401 21.4014C18.9649 21.3281 19.2505 20.9253 19.1773 20.5005L18.1177 14.3262L22.6026 9.95362C22.7246 9.83399 22.8052 9.67774 22.8296 9.50684C22.8955 9.0796 22.5977 8.68409 22.1704 8.62062Z" fill="#F8AA17"/>
</svg>
